<svg id="svg" version="1.1" xmlns="http://www.w3.org/2000/svg" xmlns:xlink="http://www.w3.org/1999/xlink" width="400" height="399.7335109926716" viewBox="0, 0, 400,399.7335109926716"><g id="svgg"><path id="path0" d="M374.773 52.393 C 373.838 52.855,373.552 53.422,372.977 55.963 C 372.098 59.850,369.010 69.170,368.210 70.353 C 366.160 73.383,361.299 79.205,357.788 82.835 C 350.748 90.112,342.934 94.153,320.853 101.934 C 296.619 110.474,292.684 111.532,267.821 116.188 C 249.470 119.625,236.436 121.444,221.053 122.716 C 218.268 122.947,213.051 123.487,209.460 123.917 C 205.869 124.347,201.732 124.772,200.266 124.860 C 198.801 124.949,195.443 125.303,192.805 125.647 C 190.167 125.992,186.449 126.398,184.544 126.551 C 182.638 126.704,179.700 127.123,178.015 127.482 C 176.329 127.841,173.451 128.271,171.619 128.437 C 161.914 129.319,151.556 131.186,134.444 135.139 C 130.973 135.940,125.113 137.891,121.120 139.574 C 119.214 140.378,115.616 141.789,113.125 142.709 C 101.724 146.922,95.519 150.175,86.476 156.678 C 77.945 162.813,76.236 164.444,69.972 172.418 C 59.247 186.074,54.689 195.179,50.767 210.782 C 47.976 221.885,46.781 240.623,48.327 249.034 C 48.597 250.500,48.917 253.018,49.039 254.630 C 49.635 262.482,53.330 274.147,57.781 282.230 C 61.945 289.791,64.631 293.319,67.923 295.553 C 69.912 296.902,69.780 297.113,66.023 298.599 C 64.227 299.309,59.460 301.385,55.430 303.212 C 51.399 305.039,46.801 307.057,45.212 307.697 C 43.623 308.336,42.004 309.084,41.614 309.359 C 39.642 310.750,35.882 312.140,30.367 313.517 C 26.416 314.504,22.794 315.734,21.999 316.359 C 19.527 318.304,23.966 329.609,29.314 334.991 C 34.325 340.034,36.303 339.794,44.582 333.143 C 46.751 331.400,49.269 329.583,50.179 329.105 C 51.088 328.626,52.378 327.840,53.045 327.358 C 53.713 326.875,56.186 325.471,58.543 324.237 C 63.794 321.485,67.724 318.912,73.213 314.631 C 81.639 308.059,81.335 308.209,82.346 310.121 C 91.619 327.678,115.764 342.605,139.773 345.625 C 174.154 349.949,190.637 347.850,214.390 336.125 C 230.654 328.097,237.581 324.067,248.630 316.205 C 251.344 314.274,254.766 311.904,256.235 310.938 C 261.579 307.425,263.069 306.053,275.859 292.856 C 284.639 283.798,287.176 280.852,294.901 270.746 C 299.401 264.857,302.312 260.613,306.864 253.298 C 308.596 250.513,311.418 246.076,313.134 243.438 C 314.850 240.799,316.770 237.622,317.402 236.376 C 318.034 235.130,319.607 232.129,320.898 229.707 C 323.471 224.881,324.267 223.147,329.513 210.926 C 331.464 206.382,333.481 201.742,333.996 200.615 C 334.511 199.487,335.076 197.868,335.250 197.017 C 335.800 194.341,336.841 191.358,338.885 186.599 C 343.547 175.753,346.875 166.387,349.656 156.296 C 350.060 154.830,350.869 152.732,351.454 151.632 C 352.945 148.833,355.848 140.950,357.539 135.110 C 358.324 132.398,359.255 129.280,359.607 128.181 C 359.960 127.082,360.565 125.043,360.952 123.651 C 361.340 122.258,362.087 120.166,362.612 119.001 C 363.138 117.837,363.624 116.338,363.691 115.670 C 363.812 114.469,365.488 109.120,366.951 105.263 C 367.368 104.164,368.388 101.478,369.217 99.294 C 370.047 97.110,371.308 93.092,372.019 90.365 C 372.730 87.638,373.747 84.208,374.278 82.744 C 374.937 80.927,375.323 79.294,375.491 77.608 C 375.657 75.940,375.998 74.484,376.541 73.130 C 378.663 67.829,379.141 60.020,377.734 53.623 C 377.472 52.428,375.968 51.804,374.773 52.393 M284.191 172.038 C 284.880 172.726,284.690 173.329,282.963 175.932 C 280.082 180.272,260.568 199.498,248.767 209.623 C 219.446 234.781,201.951 247.398,173.618 263.819 C 148.584 278.327,138.751 282.302,108.594 290.108 C 104.344 291.209,98.468 292.748,95.536 293.529 C 88.083 295.516,86.359 295.531,84.937 293.626 C 83.297 291.430,84.893 290.359,92.605 288.485 C 108.542 284.612,132.527 277.225,141.200 273.517 C 147.389 270.871,160.339 264.488,162.668 262.935 C 163.682 262.259,165.121 261.506,165.866 261.262 C 171.709 259.348,191.021 247.916,201.066 240.425 C 203.118 238.895,206.865 236.272,209.393 234.598 C 211.921 232.923,214.550 231.067,215.234 230.475 C 215.919 229.882,222.665 224.452,230.225 218.408 C 250.603 202.116,256.548 197.035,267.400 186.631 C 274.446 179.877,283.345 171.628,283.592 171.623 C 283.691 171.621,283.961 171.807,284.191 172.038 " stroke="none" fill="#1c6434" fill-rule="evenodd"></path><path id="path1" d="M377.943 54.630 C 377.943 55.143,377.998 55.353,378.065 55.097 C 378.132 54.840,378.132 54.420,378.065 54.164 C 377.998 53.907,377.943 54.117,377.943 54.630 M378.753 62.092 C 378.753 62.751,378.805 63.021,378.869 62.692 C 378.932 62.362,378.932 61.822,378.869 61.492 C 378.805 61.163,378.753 61.432,378.753 62.092 M375.556 77.282 C 375.556 77.941,375.608 78.211,375.671 77.881 C 375.735 77.552,375.735 77.012,375.671 76.682 C 375.608 76.352,375.556 76.622,375.556 77.282 M360.943 79.214 L 360.160 80.080 361.026 79.297 C 361.502 78.867,361.892 78.477,361.892 78.431 C 361.892 78.225,361.672 78.407,360.943 79.214 M357.090 83.344 L 354.564 85.943 357.162 83.416 C 359.575 81.070,359.881 80.746,359.688 80.746 C 359.649 80.746,358.480 81.915,357.090 83.344 M223.118 122.502 C 223.374 122.569,223.794 122.569,224.051 122.502 C 224.307 122.435,224.097 122.380,223.584 122.380 C 223.071 122.380,222.861 122.435,223.118 122.502 M219.790 122.773 C 220.121 122.837,220.601 122.835,220.856 122.768 C 221.111 122.701,220.839 122.649,220.253 122.652 C 219.667 122.655,219.458 122.710,219.790 122.773 M216.456 123.035 C 216.712 123.102,217.132 123.102,217.388 123.035 C 217.645 122.968,217.435 122.913,216.922 122.913 C 216.409 122.913,216.199 122.968,216.456 123.035 M199.537 124.905 C 199.868 124.969,200.348 124.967,200.603 124.900 C 200.857 124.833,200.586 124.781,200.000 124.784 C 199.414 124.787,199.205 124.842,199.537 124.905 M187.545 126.238 C 187.876 126.302,188.356 126.299,188.611 126.232 C 188.865 126.166,188.594 126.114,188.008 126.117 C 187.422 126.119,187.213 126.174,187.545 126.238 M183.944 126.499 C 184.201 126.567,184.620 126.567,184.877 126.499 C 185.133 126.432,184.923 126.378,184.410 126.378 C 183.897 126.378,183.688 126.432,183.944 126.499 M171.686 128.365 C 171.942 128.432,172.362 128.432,172.618 128.365 C 172.875 128.298,172.665 128.243,172.152 128.243 C 171.639 128.243,171.429 128.298,171.686 128.365 M351.684 151.236 C 351.441 151.747,351.296 152.165,351.363 152.165 C 351.546 152.165,352.355 150.534,352.233 150.412 C 352.175 150.354,351.928 150.725,351.684 151.236 M78.198 162.891 L 77.415 163.757 78.281 162.975 C 79.088 162.245,79.270 162.025,79.064 162.025 C 79.018 162.025,78.628 162.415,78.198 162.891 M74.200 166.889 L 73.418 167.755 74.284 166.972 C 75.091 166.243,75.272 166.023,75.067 166.023 C 75.021 166.023,74.631 166.412,74.200 166.889 M280.203 174.617 L 278.881 176.016 280.280 174.694 C 281.049 173.966,281.679 173.337,281.679 173.294 C 281.679 173.096,281.432 173.317,280.203 174.617 M276.882 177.615 C 276.235 178.274,275.765 178.814,275.838 178.814 C 275.912 178.814,276.501 178.274,277.149 177.615 C 277.796 176.955,278.266 176.416,278.192 176.416 C 278.119 176.416,277.529 176.955,276.882 177.615 M272.347 181.945 L 269.820 184.544 272.418 182.017 C 274.832 179.671,275.138 179.347,274.945 179.347 C 274.905 179.347,273.736 180.516,272.347 181.945 M270.218 189.407 L 261.026 198.668 270.286 189.475 C 278.893 180.932,279.667 180.147,279.479 180.147 C 279.441 180.147,275.274 184.314,270.218 189.407 M265.690 188.274 C 264.598 189.374,263.764 190.273,263.837 190.273 C 263.911 190.273,264.864 189.374,265.956 188.274 C 267.048 187.175,267.881 186.276,267.808 186.276 C 267.735 186.276,266.781 187.175,265.690 188.274 M261.426 192.272 C 260.778 192.931,260.309 193.471,260.382 193.471 C 260.455 193.471,261.045 192.931,261.692 192.272 C 262.340 191.612,262.809 191.073,262.736 191.073 C 262.663 191.073,262.073 191.612,261.426 192.272 M258.480 195.003 L 257.562 196.003 258.561 195.084 C 259.491 194.230,259.683 194.004,259.479 194.004 C 259.435 194.004,258.985 194.454,258.480 195.003 M255.946 197.268 L 255.163 198.135 256.029 197.352 C 256.506 196.921,256.895 196.532,256.895 196.486 C 256.895 196.280,256.676 196.461,255.946 197.268 M253.814 199.134 L 253.031 200.000 253.897 199.217 C 254.374 198.787,254.763 198.397,254.763 198.351 C 254.763 198.145,254.544 198.327,253.814 199.134 M258.494 200.799 C 257.847 201.459,257.377 201.999,257.451 201.999 C 257.524 201.999,258.114 201.459,258.761 200.799 C 259.408 200.140,259.878 199.600,259.805 199.600 C 259.731 199.600,259.142 200.140,258.494 200.799 M255.549 203.531 L 254.630 204.530 255.630 203.612 C 256.179 203.107,256.629 202.657,256.629 202.613 C 256.629 202.409,256.403 202.601,255.549 203.531 M253.015 205.796 L 252.232 206.662 253.098 205.880 C 253.574 205.449,253.964 205.059,253.964 205.013 C 253.964 204.808,253.744 204.989,253.015 205.796 M48.030 225.716 C 48.030 226.229,48.085 226.439,48.152 226.183 C 48.219 225.926,48.219 225.506,48.152 225.250 C 48.085 224.993,48.030 225.203,48.030 225.716 M322.637 226.386 C 322.393 226.897,322.249 227.315,322.316 227.315 C 322.498 227.315,323.307 225.683,323.185 225.562 C 323.128 225.504,322.881 225.875,322.637 226.386 M47.778 229.314 C 47.780 230.047,47.832 230.315,47.893 229.910 C 47.954 229.505,47.952 228.905,47.889 228.577 C 47.826 228.250,47.776 228.581,47.778 229.314 M215.173 230.580 L 214.390 231.446 215.256 230.663 C 215.733 230.233,216.123 229.843,216.123 229.797 C 216.123 229.591,215.903 229.772,215.173 230.580 M318.974 233.205 C 318.522 234.099,318.197 234.875,318.251 234.928 C 318.304 234.982,318.731 234.251,319.198 233.303 C 319.666 232.355,319.991 231.579,319.921 231.579 C 319.852 231.579,319.425 232.311,318.974 233.205 M47.546 238.241 C 47.546 240.953,47.585 242.062,47.634 240.706 C 47.682 239.350,47.682 237.132,47.634 235.776 C 47.585 234.420,47.546 235.530,47.546 238.241 M317.255 236.642 C 317.028 237.082,316.902 237.442,316.975 237.442 C 317.048 237.442,317.294 237.082,317.522 236.642 C 317.749 236.203,317.875 235.843,317.802 235.843 C 317.729 235.843,317.483 236.203,317.255 236.642 M48.840 253.431 C 48.840 254.091,48.892 254.360,48.956 254.031 C 49.019 253.701,49.019 253.161,48.956 252.831 C 48.892 252.502,48.840 252.771,48.840 253.431 M168.155 260.360 C 167.642 260.641,167.318 260.875,167.435 260.882 C 167.717 260.896,169.221 260.115,169.221 259.953 C 169.221 259.779,169.205 259.785,168.155 260.360 M148.701 270.087 C 148.334 270.296,148.155 270.467,148.301 270.467 C 148.448 270.467,148.867 270.296,149.234 270.087 C 149.600 269.877,149.780 269.706,149.634 269.706 C 149.487 269.706,149.067 269.877,148.701 270.087 M158.761 271.971 C 157.765 272.512,157.825 272.737,158.827 272.219 C 159.267 271.991,159.627 271.748,159.627 271.679 C 159.627 271.507,159.598 271.517,158.761 271.971 M152.432 275.150 C 152.065 275.359,151.885 275.531,152.032 275.531 C 152.179 275.531,152.598 275.359,152.965 275.150 C 153.331 274.940,153.511 274.769,153.364 274.769 C 153.218 274.769,152.798 274.940,152.432 275.150 M58.761 284.344 C 58.988 284.783,59.234 285.143,59.307 285.143 C 59.381 285.143,59.255 284.783,59.027 284.344 C 58.800 283.904,58.554 283.544,58.481 283.544 C 58.407 283.544,58.533 283.904,58.761 284.344 M283.394 284.943 L 282.612 285.809 283.478 285.027 C 284.285 284.297,284.466 284.077,284.260 284.077 C 284.215 284.077,283.825 284.467,283.394 284.943 M280.471 288.141 L 278.881 289.807 280.546 288.216 C 282.093 286.739,282.334 286.476,282.137 286.476 C 282.096 286.476,281.346 287.225,280.471 288.141 M85.745 290.540 C 85.400 290.869,85.303 291.006,85.530 290.843 C 85.757 290.681,86.183 290.415,86.476 290.252 C 86.769 290.089,86.865 289.953,86.690 289.948 C 86.515 289.944,86.090 290.210,85.745 290.540 M65.157 293.404 C 65.878 294.137,66.529 294.737,66.602 294.737 C 66.676 294.737,66.145 294.137,65.423 293.404 C 64.701 292.672,64.051 292.072,63.977 292.072 C 63.904 292.072,64.435 292.672,65.157 293.404 M274.078 294.537 L 271.686 297.002 274.151 294.609 C 276.440 292.387,276.737 292.072,276.543 292.072 C 276.504 292.072,275.394 293.181,274.078 294.537 M270.074 298.801 L 269.021 299.933 270.153 298.880 C 271.207 297.900,271.408 297.668,271.207 297.668 C 271.163 297.668,270.653 298.178,270.074 298.801 M266.746 302.398 L 265.290 303.931 266.822 302.474 C 268.246 301.121,268.477 300.866,268.279 300.866 C 268.237 300.866,267.548 301.556,266.746 302.398 M263.277 305.596 L 262.358 306.596 263.358 305.677 C 264.288 304.822,264.480 304.597,264.276 304.597 C 264.232 304.597,263.782 305.047,263.277 305.596 M21.129 318.321 C 21.131 319.054,21.183 319.322,21.244 318.917 C 21.305 318.512,21.303 317.912,21.240 317.585 C 21.177 317.257,21.127 317.588,21.129 318.321 M91.395 322.785 C 92.048 323.481,92.618 324.051,92.660 324.051 C 92.861 324.051,92.649 323.811,91.472 322.707 L 90.207 321.519 91.395 322.785 M58.894 324.051 C 58.381 324.331,58.057 324.566,58.174 324.572 C 58.457 324.587,59.960 323.806,59.960 323.644 C 59.960 323.470,59.944 323.476,58.894 324.051 M29.181 335.243 C 29.902 335.976,30.553 336.576,30.626 336.576 C 30.699 336.576,30.169 335.976,29.447 335.243 C 28.725 334.510,28.075 333.911,28.001 333.911 C 27.928 333.911,28.459 334.510,29.181 335.243 M108.728 335.096 C 108.728 335.170,109.087 335.416,109.527 335.643 C 109.967 335.870,110.326 335.996,110.326 335.923 C 110.326 335.850,109.967 335.604,109.527 335.376 C 109.087 335.149,108.728 335.023,108.728 335.096 M38.641 337.375 C 38.128 337.656,37.804 337.891,37.921 337.897 C 38.204 337.912,39.707 337.130,39.707 336.969 C 39.707 336.794,39.691 336.800,38.641 337.375 M152.232 347.152 C 152.488 347.219,152.908 347.219,153.165 347.152 C 153.421 347.085,153.211 347.031,152.698 347.031 C 152.185 347.031,151.975 347.085,152.232 347.152 M155.566 347.424 C 155.898 347.487,156.377 347.485,156.632 347.418 C 156.887 347.352,156.616 347.299,156.029 347.302 C 155.443 347.305,155.235 347.360,155.566 347.424 M176.349 347.423 C 176.679 347.487,177.219 347.487,177.548 347.423 C 177.878 347.360,177.608 347.308,176.949 347.308 C 176.289 347.308,176.019 347.360,176.349 347.423 M159.960 347.696 C 160.510 347.753,161.409 347.753,161.959 347.696 C 162.508 347.638,162.059 347.591,160.959 347.591 C 159.860 347.591,159.410 347.638,159.960 347.696 M167.826 347.695 C 168.305 347.754,169.025 347.753,169.425 347.692 C 169.826 347.631,169.434 347.583,168.554 347.584 C 167.675 347.586,167.347 347.635,167.826 347.695 " stroke="none" fill="#2c7444" fill-rule="evenodd"></path><path id="path2" d="" stroke="none" fill="#206434" fill-rule="evenodd"></path><path id="path3" d="" stroke="none" fill="#20703c" fill-rule="evenodd"></path><path id="path4" d="" stroke="none" fill="#206440" fill-rule="evenodd"></path></g></svg>