<?xml version="1.0" encoding="UTF-8"?>
<!DOCTYPE svg PUBLIC "-//W3C//DTD SVG 1.1//EN" "http://www.w3.org/Graphics/SVG/1.1/DTD/svg11.dtd">
<svg xmlns="http://www.w3.org/2000/svg" version="1.1" width="512px" height="512px" style="shape-rendering:geometricPrecision; text-rendering:geometricPrecision; image-rendering:optimizeQuality; fill-rule:evenodd; clip-rule:evenodd" xmlns:xlink="http://www.w3.org/1999/xlink">
<g><path style="opacity:0.998" fill="#1c6736" d="M 478.5,65.5 C 480.144,65.2865 481.644,65.6198 483,66.5C 484.045,70.2453 484.545,74.0786 484.5,78C 483.84,86.6471 482.34,95.1471 480,103.5C 467.812,141.267 455.479,178.934 443,216.5C 434.274,240.067 424.94,263.4 415,286.5C 394.709,327.139 367.876,362.973 334.5,394C 316.228,407.584 296.894,419.584 276.5,430C 248.411,444.388 218.744,449.054 187.5,444C 156.137,441.401 129.97,428.567 109,405.5C 107,402.167 105,398.833 103,395.5C 90.4543,406.529 76.621,415.696 61.5,423C 56.7691,428.233 51.1024,432.067 44.5,434.5C 39.9503,432.454 36.1169,429.454 33,425.5C 29.526,419.72 27.026,413.553 25.5,407C 25.7591,405.739 26.4258,404.739 27.5,404C 47.6704,397.108 67.3371,388.941 86.5,379.5C 72.7874,365.739 64.6207,349.072 62,329.5C 54.0036,282.17 66.5036,241.337 99.5,207C 106.011,202.577 112.345,197.911 118.5,193C 133.154,185.839 148.154,179.506 163.5,174C 177.366,170.367 191.366,167.367 205.5,165C 240.115,160.605 274.781,156.605 309.5,153C 352.882,148.405 394.548,137.405 434.5,120C 458.31,109.041 472.977,90.8746 478.5,65.5 Z M 361.5,220.5 C 362.043,220.56 362.376,220.893 362.5,221.5C 361.533,223.63 360.366,225.63 359,227.5C 314.217,274.313 263.717,313.48 207.5,345C 195.736,350.883 183.736,356.216 171.5,361C 153.673,366.609 135.673,371.609 117.5,376C 114.571,376.777 111.737,376.61 109,375.5C 108.316,374.216 108.483,373.049 109.5,372C 169.817,358.833 224.483,333.833 273.5,297C 288.317,284.76 303.317,272.76 318.5,261C 333.333,248 347.666,234.5 361.5,220.5 Z"/></g>
</svg>
